<?xml version="1.0" encoding="utf-8"?>
<!-- Generator: Adobe Illustrator 24.0.3, SVG Export Plug-In . SVG Version: 6.00 Build 0)  -->
<svg version="1.1" id="Layer_1" xmlns="http://www.w3.org/2000/svg" xmlns:xlink="http://www.w3.org/1999/xlink" x="0px" y="0px"
	 viewBox="0 0 44.63 43.61" style="enable-background:new 0 0 44.63 43.61;" xml:space="preserve">
<style type="text/css">
	.st0{fill:#446099;}
	.st1{fill:none;stroke:#331E0F;stroke-width:1.0939;stroke-miterlimit:10;}
	.st2{fill:#331D10;}
	.st3{fill:none;}
	.st4{fill:#E8AF2B;}
	.st5{fill:#F69799;stroke:#000000;stroke-width:3.4462;stroke-miterlimit:10;}
	.st6{clip-path:url(#SVGID_2_);}
	.st7{fill:#EE1E3A;}
	.st8{fill:#F8991D;}
	.st9{fill:#F7EC13;}
	.st10{fill:#44B649;}
	.st11{fill:#488FCD;}
	.st12{fill:#864C9E;}
	.st13{fill:#CECBE6;stroke:#000000;stroke-width:3.8928;stroke-miterlimit:10;}
	.st14{fill:#6167AF;stroke:#000000;stroke-width:3.8928;stroke-miterlimit:10;}
	.st15{stroke:#000000;stroke-width:3.8928;stroke-miterlimit:10;}
	.st16{fill:#6167AF;stroke:#000000;stroke-width:3.4462;stroke-miterlimit:10;}
	.st17{fill:#9FC9EB;stroke:#000000;stroke-width:3.4462;stroke-miterlimit:10;}
	.st18{fill:#2F67B2;stroke:#000000;stroke-width:3.8928;stroke-miterlimit:10;}
	.st19{fill:#2F67B2;stroke:#000000;stroke-width:3.4462;stroke-miterlimit:10;}
	.st20{fill:#D1E8C5;stroke:#000000;stroke-width:3.4462;stroke-miterlimit:10;}
	.st21{fill:#6EBE44;stroke:#000000;stroke-width:3.4462;stroke-miterlimit:10;}
	.st22{fill:#CB3727;stroke:#000000;stroke-width:3.4462;stroke-miterlimit:10;}
	.st23{fill:#FDCC9A;stroke:#000000;stroke-width:3.4462;stroke-miterlimit:10;}
	.st24{fill:#F8991D;stroke:#000000;stroke-width:3.4462;stroke-miterlimit:10;}
	.st25{fill:#FCF9CE;stroke:#000000;stroke-width:3.4462;stroke-miterlimit:10;}
	.st26{fill:#FFCD34;stroke:#000000;stroke-width:3.8928;stroke-miterlimit:10;}
	.st27{fill:#FFCD34;stroke:#000000;stroke-width:3.4462;stroke-miterlimit:10;}
	.st28{fill:none;stroke:#000000;stroke-width:3.8928;stroke-miterlimit:10;}
	.st29{fill:#CB3727;stroke:#000000;stroke-width:3.8928;stroke-miterlimit:10;}
	.st30{stroke:#000000;stroke-width:3;stroke-miterlimit:10;}
	.st31{fill:#FBD7D7;}
	.st32{fill:#EB365C;}
	.st33{fill:#F9F5F4;}
	.st34{fill:#9FD9DB;}
	.st35{fill:#5F6060;}
	.st36{fill:#44B649;stroke:#000000;stroke-width:1.3802;stroke-miterlimit:10;}
	.st37{fill:#653614;}
	.st38{fill:#996632;}
	.st39{fill:none;stroke:#000000;stroke-width:1.3802;stroke-miterlimit:10;}
	.st40{fill:#006635;}
	.st41{fill:#FFCD05;stroke:#000000;stroke-width:1.3802;stroke-miterlimit:10;}
	.st42{fill:#2F1110;}
	.st43{fill:#CA9A2C;}
	.st44{fill:#79B579;stroke:#331E0F;stroke-width:1.3802;stroke-miterlimit:10;}
	.st45{fill:#7F421F;}
	.st46{fill:#BF7029;}
	.st47{fill:none;stroke:#331E0F;stroke-width:1.3802;stroke-miterlimit:10;}
	.st48{fill:#79B579;}
	.st49{fill:#30694D;}
	.st50{fill:#E8AF2B;stroke:#331E0F;stroke-width:1.3802;stroke-miterlimit:10;}
	.st51{fill:#AD883C;}
	.st52{fill:#5D79BC;}
	.st53{fill:#5D79BC;stroke:#331E0F;stroke-width:1.3802;stroke-miterlimit:10;}
	.st54{fill:#9FD9DB;stroke:#331E0F;stroke-width:6;stroke-miterlimit:10;}
	.st55{fill:none;stroke:#331E0F;stroke-width:6;stroke-miterlimit:10;}
	.st56{fill:#79B579;stroke:#331E0F;stroke-width:8.4146;stroke-miterlimit:10;}
	.st57{fill:none;stroke:#331E0F;stroke-width:8.4146;stroke-miterlimit:10;}
	.st58{fill:#757271;stroke:#757271;stroke-width:3.1733;stroke-miterlimit:10;}
	.st59{clip-path:url(#SVGID_4_);}
</style>
<g>
	<path class="st50" d="M25.39,16.95c1.1-0.88,1.64-2.39,1.35-3.77c-0.24-1.13-0.96-2.09-1.6-3.06s-1.22-2.07-1.1-3.22
		c0.03,0.77-0.49,1.46-1.09,1.95c-0.6,0.49-1.31,0.84-1.88,1.36c-0.85,0.78-1.36,1.93-1.35,3.09s0.52,2.3,1.39,3.08"/>
	<path class="st50" d="M20.69,16.41c0.24-1.38-0.36-2.88-1.48-3.72c-0.93-0.69-2.11-0.93-3.22-1.23c-1.12-0.3-2.28-0.74-2.96-1.68
		c0.53,0.56,0.6,1.42,0.47,2.18s-0.42,1.49-0.5,2.26c-0.12,1.15,0.26,2.35,1.04,3.21c0.77,0.86,1.92,1.38,3.08,1.39"/>
	<path class="st50" d="M28.35,20.96c1.38,0.25,2.88-0.34,3.73-1.46c0.7-0.92,0.94-2.1,1.25-3.22c0.31-1.12,0.76-2.28,1.7-2.95
		c-0.56,0.53-1.43,0.59-2.19,0.46c-0.76-0.13-1.49-0.43-2.26-0.52c-1.15-0.13-2.35,0.25-3.22,1.01c-0.87,0.77-1.39,1.91-1.41,3.07"
		/>
	<path class="st50" d="M27.28,26.03c0.74,1.19,2.18,1.91,3.58,1.79c1.15-0.1,2.19-0.71,3.22-1.23s2.2-0.97,3.33-0.71
		c-0.77-0.06-1.4-0.66-1.81-1.31s-0.68-1.4-1.13-2.02c-0.68-0.94-1.76-1.58-2.91-1.71c-1.15-0.13-2.35,0.25-3.22,1.01"/>
	<path class="st50" d="M22.15,27.43c-0.81,1.15-0.91,2.76-0.26,4c0.54,1.02,1.51,1.74,2.39,2.49c0.88,0.75,1.74,1.65,1.95,2.79
		c-0.24-0.73,0.06-1.54,0.51-2.18s1.02-1.17,1.42-1.83c0.6-0.99,0.77-2.23,0.44-3.35c-0.33-1.11-1.14-2.07-2.19-2.57"/>
	<path class="st50" d="M17.35,25.01c-1.4,0.05-2.75,0.94-3.34,2.22c-0.49,1.05-0.47,2.25-0.54,3.41c-0.07,1.16-0.26,2.39-1.04,3.24
		c0.44-0.64,1.27-0.88,2.04-0.91s1.55,0.11,2.32,0.03c1.15-0.12,2.24-0.74,2.93-1.67c0.69-0.93,0.96-2.16,0.72-3.3"/>
	<path class="st50" d="M17.25,19.69c-0.89-1.09-2.41-1.61-3.79-1.31c-1.13,0.25-2.08,0.99-3.04,1.64c-0.96,0.65-2.05,1.24-3.21,1.14
		c0.77-0.04,1.47,0.47,1.96,1.07s0.86,1.29,1.38,1.86c0.79,0.84,1.95,1.33,3.11,1.31c1.16-0.02,2.3-0.55,3.06-1.42"/>
	<circle class="st45" cx="22.37" cy="22.14" r="5.88"/>
	<path class="st42" d="M28.12,22.14c0,3.47-3.22,6.38-6.69,5.82c0.46-0.44,0.92-0.88,1.36-1.35c0.31-0.34,0.68-0.52,1.05-0.8
		c0.83-0.62,1.49-1.48,1.86-2.45c0.37-0.97,0.45-2.01,0.39-3.04c-0.02-0.36-0.47-2.6-0.05-2.64c0.25-0.02,0.77,0.76,0.91,0.95
		c0.25,0.34,0.47,0.71,0.65,1.09C27.94,20.48,28.12,21.31,28.12,22.14z"/>
	<path class="st51" d="M28.03,19.13c0.92,0.03,1.84-0.37,2.44-1.06c0.6-0.69,0.87-1.66,0.72-2.57c-0.53,1.23-1.58,2.24-2.83,2.71
		c-0.28,0.11-0.58,0.19-0.8,0.4c-0.22,0.2-0.33,0.58-0.13,0.81"/>
	<path class="st51" d="M24.06,13.85c-0.01-0.8-0.28-1.58-0.55-2.34c0.13,0.76,0.04,1.56-0.26,2.28c-0.16,0.39-0.38,0.75-0.46,1.16
		c-0.14,0.67,0.21,1.26,0.76,0.57C23.91,15.07,24.06,14.44,24.06,13.85z"/>
	<path class="st51" d="M17.39,13.93c-0.52-0.32-1.14-0.51-1.58-0.95c0.47,0.48,0.75,1.32,1.17,1.87c0.45,0.59,0.94,1.13,1.49,1.63
		c0.8,0.73,0.42-0.57,0.23-1.02C18.43,14.84,17.97,14.29,17.39,13.93z"/>
	<path class="st51" d="M15.98,21.39c-0.38-0.23-0.84-0.31-1.27-0.22c-0.4,0.08-0.76,0.3-1.16,0.39c-0.57,0.14-1.2,0-1.67-0.35
		c0.55,0.44,1.16,0.84,1.84,1.03c0.68,0.19,1.45,0.16,2.04-0.24c0.15-0.1,0.31-0.26,0.27-0.44c-0.02-0.13-0.15-0.23-0.28-0.26
		c-0.13-0.03-0.27-0.02-0.4,0"/>
	<path class="st51" d="M17.22,27.65c-0.22,0.47-0.28,0.99-0.43,1.49c-0.23,0.76-0.67,1.46-1.26,2c0.71-0.29,1.23-0.89,1.73-1.46
		c0.39-0.44,2.35-2.06,1.28-2.56C17.95,26.83,17.48,27.1,17.22,27.65z"/>
	<path class="st51" d="M25.21,32.04c0.33-0.99,0.98-3.19,0.09-4.04c-0.31-0.3-0.77-0.45-0.98,0c-0.26,0.55,0.1,1.43,0.3,1.95
		C24.8,30.46,25.39,31.48,25.21,32.04z"/>
	<path class="st51" d="M32.68,24.51c-1.04-0.74-2.32-1.13-3.6-1.08c-0.34,0.01-0.76,0.11-0.85,0.44c-0.09,0.3,0.16,0.61,0.46,0.71
		s0.61,0.05,0.92,0.03c1.26-0.1,2.52,0.18,3.75,0.46c-0.41-0.57-1.06-0.97-1.76-1.08"/>
	<circle class="st47" cx="22.37" cy="22.14" r="5.88"/>
</g>
</svg>
