<?xml version="1.0" encoding="utf-8"?>
<!-- Generator: Adobe Illustrator 24.0.3, SVG Export Plug-In . SVG Version: 6.00 Build 0)  -->
<svg version="1.1" id="Layer_1" xmlns="http://www.w3.org/2000/svg" xmlns:xlink="http://www.w3.org/1999/xlink" x="0px" y="0px"
	 viewBox="0 0 44.63 43.61" style="enable-background:new 0 0 44.63 43.61;" xml:space="preserve">
<style type="text/css">
	.st0{fill:#446099;}
	.st1{fill:none;stroke:#331E0F;stroke-width:1.0939;stroke-miterlimit:10;}
	.st2{fill:#331D10;}
	.st3{fill:none;}
	.st4{fill:#E8AF2B;}
	.st5{fill:#F69799;stroke:#000000;stroke-width:3.4462;stroke-miterlimit:10;}
	.st6{clip-path:url(#SVGID_2_);}
	.st7{fill:#EE1E3A;}
	.st8{fill:#F8991D;}
	.st9{fill:#F7EC13;}
	.st10{fill:#44B649;}
	.st11{fill:#488FCD;}
	.st12{fill:#864C9E;}
	.st13{fill:#CECBE6;stroke:#000000;stroke-width:3.8928;stroke-miterlimit:10;}
	.st14{fill:#6167AF;stroke:#000000;stroke-width:3.8928;stroke-miterlimit:10;}
	.st15{stroke:#000000;stroke-width:3.8928;stroke-miterlimit:10;}
	.st16{fill:#6167AF;stroke:#000000;stroke-width:3.4462;stroke-miterlimit:10;}
	.st17{fill:#9FC9EB;stroke:#000000;stroke-width:3.4462;stroke-miterlimit:10;}
	.st18{fill:#2F67B2;stroke:#000000;stroke-width:3.8928;stroke-miterlimit:10;}
	.st19{fill:#2F67B2;stroke:#000000;stroke-width:3.4462;stroke-miterlimit:10;}
	.st20{fill:#D1E8C5;stroke:#000000;stroke-width:3.4462;stroke-miterlimit:10;}
	.st21{fill:#6EBE44;stroke:#000000;stroke-width:3.4462;stroke-miterlimit:10;}
	.st22{fill:#CB3727;stroke:#000000;stroke-width:3.4462;stroke-miterlimit:10;}
	.st23{fill:#FDCC9A;stroke:#000000;stroke-width:3.4462;stroke-miterlimit:10;}
	.st24{fill:#F8991D;stroke:#000000;stroke-width:3.4462;stroke-miterlimit:10;}
	.st25{fill:#FCF9CE;stroke:#000000;stroke-width:3.4462;stroke-miterlimit:10;}
	.st26{fill:#FFCD34;stroke:#000000;stroke-width:3.8928;stroke-miterlimit:10;}
	.st27{fill:#FFCD34;stroke:#000000;stroke-width:3.4462;stroke-miterlimit:10;}
	.st28{fill:none;stroke:#000000;stroke-width:3.8928;stroke-miterlimit:10;}
	.st29{fill:#CB3727;stroke:#000000;stroke-width:3.8928;stroke-miterlimit:10;}
	.st30{stroke:#000000;stroke-width:3;stroke-miterlimit:10;}
	.st31{fill:#FBD7D7;}
	.st32{fill:#EB365C;}
	.st33{fill:#F9F5F4;}
	.st34{fill:#9FD9DB;}
	.st35{fill:#5F6060;}
	.st36{fill:#44B649;stroke:#000000;stroke-width:1.3802;stroke-miterlimit:10;}
	.st37{fill:#653614;}
	.st38{fill:#996632;}
	.st39{fill:none;stroke:#000000;stroke-width:1.3802;stroke-miterlimit:10;}
	.st40{fill:#006635;}
	.st41{fill:#FFCD05;stroke:#000000;stroke-width:1.3802;stroke-miterlimit:10;}
	.st42{fill:#2F1110;}
	.st43{fill:#CA9A2C;}
	.st44{fill:#79B579;stroke:#331E0F;stroke-width:1.3802;stroke-miterlimit:10;}
	.st45{fill:#7F421F;}
	.st46{fill:#BF7029;}
	.st47{fill:none;stroke:#331E0F;stroke-width:1.3802;stroke-miterlimit:10;}
	.st48{fill:#79B579;}
	.st49{fill:#30694D;}
	.st50{fill:#E8AF2B;stroke:#331E0F;stroke-width:1.3802;stroke-miterlimit:10;}
	.st51{fill:#AD883C;}
	.st52{fill:#5D79BC;}
	.st53{fill:#5D79BC;stroke:#331E0F;stroke-width:1.3802;stroke-miterlimit:10;}
	.st54{fill:#9FD9DB;stroke:#331E0F;stroke-width:6;stroke-miterlimit:10;}
	.st55{fill:none;stroke:#331E0F;stroke-width:6;stroke-miterlimit:10;}
	.st56{fill:#79B579;stroke:#331E0F;stroke-width:8.4146;stroke-miterlimit:10;}
	.st57{fill:none;stroke:#331E0F;stroke-width:8.4146;stroke-miterlimit:10;}
	.st58{fill:#757271;stroke:#757271;stroke-width:3.1733;stroke-miterlimit:10;}
	.st59{clip-path:url(#SVGID_4_);}
</style>
<g>
	<path class="st48" d="M24.52,31.74c0.28-4.19-0.13-8.38,0.16-12.56c1.52,0.48,3.07,0.97,4.66,0.9c1.59-0.06,3.25-0.79,3.99-2.2
		c0.85-1.61,0.22-3.75-1.19-4.9c-1.41-1.15-3.42-1.38-5.18-0.9c-1.76,0.47-3.29,1.57-4.6,2.84c-1.3-1.27-2.91-2.37-4.67-2.84
		c-1.76-0.47-3.77-0.24-5.18,0.9s-2.04,3.29-1.19,4.9c0.74,1.41,2.4,2.13,3.99,2.2c1.59,0.06,3.14-0.42,4.66-0.9
		c0.28,4.19-0.13,8.38,0.16,12.56"/>
	<path class="st49" d="M33.32,17.9c-0.74,1.41-2.4,2.14-3.99,2.2c-1.59,0.06-3.14-0.42-4.66-0.9c-0.28,4.19,0.12,8.37-0.16,12.56
		h-1.1c-0.1-4.87-0.2-9.73-0.3-14.6c1.31,0.49,2.77,0.69,4.16,0.8c1.39,0.12,2.88-0.18,3.93-1.11c0.91-0.81,1.39-2,1.53-3.22
		C33.71,14.82,34.04,16.55,33.32,17.9z"/>
	<path class="st47" d="M24.52,31.74c0.28-4.19-0.13-8.38,0.16-12.56c1.52,0.48,3.07,0.97,4.66,0.9c1.59-0.06,3.25-0.79,3.99-2.2
		c0.85-1.61,0.22-3.75-1.19-4.9c-1.41-1.15-3.42-1.38-5.18-0.9c-1.76,0.47-3.29,1.57-4.6,2.84c-1.3-1.27-2.91-2.37-4.67-2.84
		c-1.76-0.47-3.77-0.24-5.18,0.9s-2.04,3.29-1.19,4.9c0.74,1.41,2.4,2.13,3.99,2.2c1.59,0.06,3.14-0.42,4.66-0.9
		c0.28,4.19-0.13,8.38,0.16,12.56"/>
	<path class="st49" d="M16.25,14.85c0.19,0.04,0.39,0.03,0.58,0.02c0.99-0.03,1.99,0.24,2.84,0.76c-0.45-0.28-0.82-0.7-1.3-0.97
		c-0.53-0.3-1.06-0.56-1.65-0.74c-0.33-0.1-0.76-0.14-0.94,0.14c-0.14,0.21-0.05,0.51,0.13,0.69c0.18,0.18,0.43,0.26,0.67,0.34
		c0.96,0.32,1.91,0.64,2.87,0.95c0.16,0.05,0.36,0.09,0.46-0.05c0.11-0.16-0.07-0.37-0.23-0.48c-0.63-0.44-1.25-0.99-1.93-1.34
		c-0.48-0.25-1.1-0.62-1.64-0.34C15.6,14.1,15.71,14.73,16.25,14.85z"/>
</g>
</svg>
